<?xml version="1.0" encoding="UTF-8" standalone="no"?>
<svg
   xmlns:dc="http://purl.org/dc/elements/1.1/"
   xmlns:cc="http://creativecommons.org/ns#"
   xmlns:rdf="http://www.w3.org/1999/02/22-rdf-syntax-ns#"
   xmlns:svg="http://www.w3.org/2000/svg"
   xmlns="http://www.w3.org/2000/svg"
   xmlns:sodipodi="http://sodipodi.sourceforge.net/DTD/sodipodi-0.dtd"
   xmlns:inkscape="http://www.inkscape.org/namespaces/inkscape"
   height="32"
   width="32"
   version="1.1"
   x="0px"
   y="0px"
   viewBox="0 0 32 32"
   enable-background="new 0 0 1000 1000"
   xml:space="preserve"
   id="svg40"
   sodipodi:docname="arrow.svg"
   inkscape:version="1.0 (4035a4fb49, 2020-05-01)"><defs
   id="defs44" /><sodipodi:namedview
   inkscape:pagecheckerboard="true"
   inkscape:document-rotation="0"
   pagecolor="#ffffff"
   bordercolor="#666666"
   borderopacity="1"
   objecttolerance="10"
   gridtolerance="10"
   guidetolerance="10"
   inkscape:pageopacity="0"
   inkscape:pageshadow="2"
   inkscape:window-width="2400"
   inkscape:window-height="1321"
   id="namedview42"
   showgrid="false"
   inkscape:zoom="19.980009"
   inkscape:cx="17.234663"
   inkscape:cy="12.944712"
   inkscape:window-x="2541"
   inkscape:window-y="-9"
   inkscape:window-maximized="1"
   inkscape:current-layer="svg40" />
<metadata
   id="metadata2"> Svg Vector Icons : http://www.onlinewebfonts.com/icon <rdf:RDF><cc:Work
     rdf:about=""><dc:format>image/svg+xml</dc:format><dc:type
       rdf:resource="http://purl.org/dc/dcmitype/StillImage" /><dc:title /></cc:Work></rdf:RDF></metadata>
<path
   d="M 16,0 C 11.905188,0 7.8098074,1.5613896 4.6858844,4.6853179 c -6.2478459,6.2478421 -6.2478459,16.3803811 0,22.6282311 6.2478536,6.247841 16.3803836,6.247842 22.6282316,0 6.247846,-6.24785 6.247846,-16.380389 0,-22.6282311 C 24.190192,1.5613896 20.094813,0 16,0 Z m 0,3.8909912 c 3.098672,0 6.197464,1.1815208 8.562197,3.5462453 4.729458,4.7294635 4.729458,12.3949395 0,17.1243935 -4.729466,4.729457 -12.394936,4.729457 -17.124394,0 -4.7294592,-4.729454 -4.7294592,-12.39493 0,-17.1243935 C 9.8025298,5.072512 12.901337,3.8909912 16,3.8909912 Z m -0.278216,0.4415166 a 10.613017,11.500508 0 0 1 0.04839,0 10.613017,11.500508 0 0 0 -0.04839,0 z m 0.02016,0.7983588 a 9.8860446,10.712745 0 0 1 0.04435,0 9.8860446,10.712745 0 0 0 -0.04435,0 z"
   style="fill:#ffffff;stroke-width:0.0326526"
   id="path868" /><g
   transform="rotate(-45,500,500)"
   id="g8" /><g
   transform="rotate(-45,500,500)"
   id="g10" /><g
   transform="rotate(-45,500,500)"
   id="g12" /><g
   transform="rotate(-45,500,500)"
   id="g14" /><g
   transform="rotate(-45,500,500)"
   id="g16" /><g
   transform="rotate(-45,500,500)"
   id="g18" /><g
   transform="rotate(-45,500,500)"
   id="g20" /><g
   transform="rotate(-45,500,500)"
   id="g22" /><g
   transform="rotate(-45,500,500)"
   id="g24" /><g
   transform="rotate(-45,500,500)"
   id="g26" /><g
   transform="rotate(-45,500,500)"
   id="g28" /><g
   transform="rotate(-45,500,500)"
   id="g30" /><g
   transform="rotate(-45,500,500)"
   id="g32" /><g
   transform="rotate(-45,500,500)"
   id="g34" /><g
   transform="rotate(-45,500,500)"
   id="g36" />
<path
   style="fill:#ffffff;stroke:#ffffff;stroke-width:0.799518;stroke-miterlimit:4;stroke-dasharray:none;stroke-opacity:1"
   d="M 15.999766,7.9117802 9.6387163,14.272829 c -0.585045,0.585045 -0.586776,1.535316 0,2.122092 0.5867747,0.586775 1.5353147,0.586775 2.1220897,0 l 2.741751,-2.741752 -0.0033,9.101077 c 0,0.827371 0.671615,1.498985 1.498986,1.498985 0.415416,0 0.787572,-0.167907 1.059322,-0.439662 0.271749,-0.27175 0.439613,-0.647369 0.439613,-1.059323 v -9.101077 l 2.741745,2.741752 c 0.585049,0.585044 1.535315,0.586775 2.12209,0 0.586775,-0.586776 0.586775,-1.535316 0,-2.122092 z"
   id="path4" /></svg>
