<?xml version="1.0" encoding="UTF-8" standalone="no"?>
<svg
   xmlns:osb="http://www.openswatchbook.org/uri/2009/osb"
   xmlns:dc="http://purl.org/dc/elements/1.1/"
   xmlns:cc="http://creativecommons.org/ns#"
   xmlns:rdf="http://www.w3.org/1999/02/22-rdf-syntax-ns#"
   xmlns:svg="http://www.w3.org/2000/svg"
   xmlns="http://www.w3.org/2000/svg"
   xmlns:sodipodi="http://sodipodi.sourceforge.net/DTD/sodipodi-0.dtd"
   xmlns:inkscape="http://www.inkscape.org/namespaces/inkscape"
   height="16"
   width="16"
   version="1"
   id="svg22"
   sodipodi:docname="app-icon.svg"
   inkscape:version="0.92.4 (5da689c313, 2019-01-14)">
  <metadata
     id="metadata28">
    <rdf:RDF>
      <cc:Work
         rdf:about="">
        <dc:format>image/svg+xml</dc:format>
        <dc:type
           rdf:resource="http://purl.org/dc/dcmitype/StillImage" />
      </cc:Work>
    </rdf:RDF>
  </metadata>
  <defs
     id="defs26">
    <linearGradient
       id="linearGradient2354"
       osb:paint="solid">
      <stop
         style="stop-color:#000000;stop-opacity:1;"
         offset="0"
         id="stop2352" />
    </linearGradient>
  </defs>
  <sodipodi:namedview
     pagecolor="#ffffff"
     bordercolor="#666666"
     borderopacity="1"
     objecttolerance="10"
     gridtolerance="10"
     guidetolerance="10"
     inkscape:pageopacity="0"
     inkscape:pageshadow="2"
     inkscape:window-width="1920"
     inkscape:window-height="1057"
     id="namedview24"
     showgrid="false"
     inkscape:zoom="55.375"
     inkscape:cx="7.8916479"
     inkscape:cy="8.5857442"
     inkscape:window-x="1912"
     inkscape:window-y="-8"
     inkscape:window-maximized="1"
     inkscape:current-layer="svg22" />
  <g
     id="g2406">
    <path
       inkscape:connector-curvature="0"
       id="path850"
       d="M 9.1472376,1.8827653 A 2.7520477,3.9811171 0 0 0 7.1995347,3.0560098 2.4314206,2.7253286 0 0 0 6.2632523,2.8479465 2.4314206,2.7253286 0 0 0 3.9109843,4.8765614 2.3779829,2.5382962 0 0 0 1.5355965,7.4137748 2.3779829,2.5382962 0 0 0 3.8531876,9.9509885 4.4086195,2.0306369 0 0 0 8.1300406,11.499902 4.4086195,2.0306369 0 0 0 12.354875,10.04924 2.8589231,3.17955 0 0 0 14.464403,6.9860899 2.8589231,3.17955 0 0 0 11.603536,3.8073486 2.8589231,3.17955 0 0 0 11.499496,3.8131329 2.7520477,3.9811171 0 0 0 9.1472278,1.8827702 Z"
       style="fill:#ff5f00;fill-opacity:0.39751554;stroke:#ffaa00;stroke-width:0.29591191;stroke-miterlimit:4;stroke-dasharray:none;stroke-opacity:1" />
    <path
       id="path870"
       d="m 5.0208411,5.9371057 h 5.4289829 l 1.358338,1.3189669 v 5.9561324 c 0,0.459373 -0.369628,0.829002 -0.829003,0.829002 H 5.0208411 c -0.4593754,0 -0.8290028,-0.369627 -0.8290028,-0.829002 V 6.766108 c 0,-0.4593739 0.3696274,-0.8290023 0.8290028,-0.8290023 z"
       style="fill:#ffffff;fill-opacity:1;stroke:#000000;stroke-width:0.44796756;stroke-miterlimit:4;stroke-dasharray:none;stroke-opacity:1"
       inkscape:connector-curvature="0" />
    <path
       inkscape:connector-curvature="0"
       id="path868"
       d="m 5.573145,7.5277302 v 0.3630987 h 4.85371 V 7.5277302 Z m 0,1.2292859 v 0.3652862 h 4.85371 V 8.7570161 Z m 0,1.231473 v 0.3630989 h 4.85371 V 9.9884891 Z m 0,1.2292869 v 0.365285 h 4.85371 v -0.365285 z m 0,1.231473 v 0.363099 h 4.85371 v -0.363099 z"
       style="fill:#030303;fill-opacity:1;stroke-width:1.11991882" />
  </g>
</svg>
