<?xml version="1.0" encoding="UTF-8" standalone="no"?>
<svg
   xmlns:dc="http://purl.org/dc/elements/1.1/"
   xmlns:cc="http://creativecommons.org/ns#"
   xmlns:rdf="http://www.w3.org/1999/02/22-rdf-syntax-ns#"
   xmlns:svg="http://www.w3.org/2000/svg"
   xmlns="http://www.w3.org/2000/svg"
   xmlns:sodipodi="http://sodipodi.sourceforge.net/DTD/sodipodi-0.dtd"
   xmlns:inkscape="http://www.inkscape.org/namespaces/inkscape"
   height="16"
   width="16"
   version="1"
   id="svg22"
   sodipodi:docname="folder-group.svg"
   inkscape:version="0.92.4 (5da689c313, 2019-01-14)">
  <metadata
     id="metadata28">
    <rdf:RDF>
      <cc:Work
         rdf:about="">
        <dc:format>image/svg+xml</dc:format>
        <dc:type
           rdf:resource="http://purl.org/dc/dcmitype/StillImage" />
      </cc:Work>
    </rdf:RDF>
  </metadata>
  <defs
     id="defs26" />
  <sodipodi:namedview
     pagecolor="#ffffff"
     bordercolor="#666666"
     borderopacity="1"
     objecttolerance="10"
     gridtolerance="10"
     guidetolerance="10"
     inkscape:pageopacity="0"
     inkscape:pageshadow="2"
     inkscape:window-width="1920"
     inkscape:window-height="1057"
     id="namedview24"
     showgrid="false"
     inkscape:zoom="55.375"
     inkscape:cx="9.130528"
     inkscape:cy="7.4303622"
     inkscape:window-x="1912"
     inkscape:window-y="-8"
     inkscape:window-maximized="1"
     inkscape:current-layer="svg22" />
  <path
     style="fill:#da7c18;fill-opacity:1"
     d="M 1.4609375 2 C 1.2109375 2 1 2.2109375 1 2.4609375 L 1 13.539062 C 1 13.796063 1.2039375 14 1.4609375 14 L 14.539062 14 C 14.796063 14 15 13.796062 15 13.539062 L 15 4.4628906 A 0.47 0.47 0 0 0 14.539062 3.9960938 L 8 3.9960938 L 6 2 L 1.4609375 2 z M 5.4882812 5.0898438 L 10.335938 5.0898438 L 11.548828 6.2675781 L 11.548828 11.585938 C 11.548828 11.996122 11.218779 12.326172 10.808594 12.326172 L 5.4882812 12.326172 C 5.0780963 12.326172 4.7480469 11.996123 4.7480469 11.585938 L 4.7480469 5.8300781 C 4.7480469 5.419893 5.0780962 5.0898438 5.4882812 5.0898438 z M 5.9824219 6.5097656 L 5.9824219 6.8339844 L 10.316406 6.8339844 L 10.316406 6.5097656 L 5.9824219 6.5097656 z M 5.9824219 7.6074219 L 5.9824219 7.9335938 L 10.316406 7.9335938 L 10.316406 7.6074219 L 5.9824219 7.6074219 z M 5.9824219 8.7070312 L 5.9824219 9.03125 L 10.316406 9.03125 L 10.316406 8.7070312 L 5.9824219 8.7070312 z M 5.9824219 9.8046875 L 5.9824219 10.130859 L 10.316406 10.130859 L 10.316406 9.8046875 L 5.9824219 9.8046875 z M 5.9824219 10.904297 L 5.9824219 11.228516 L 10.316406 11.228516 L 10.316406 10.904297 L 5.9824219 10.904297 z "
     id="path4624" />
</svg>
