<?xml version="1.0" encoding="UTF-8" standalone="no"?>
<svg
   xmlns:dc="http://purl.org/dc/elements/1.1/"
   xmlns:cc="http://creativecommons.org/ns#"
   xmlns:rdf="http://www.w3.org/1999/02/22-rdf-syntax-ns#"
   xmlns:svg="http://www.w3.org/2000/svg"
   xmlns="http://www.w3.org/2000/svg"
   xmlns:sodipodi="http://sodipodi.sourceforge.net/DTD/sodipodi-0.dtd"
   xmlns:inkscape="http://www.inkscape.org/namespaces/inkscape"
   version="1.1"
   id="Capa_1"
   x="0px"
   y="0px"
   viewBox="0 0 32 32"
   xml:space="preserve"
   sodipodi:docname="app.svg"
   width="32"
   height="32"
   inkscape:version="1.0 (4035a4fb49, 2020-05-01)"><metadata
   id="metadata61"><rdf:RDF><cc:Work
       rdf:about=""><dc:format>image/svg+xml</dc:format><dc:type
         rdf:resource="http://purl.org/dc/dcmitype/StillImage" /><dc:title /></cc:Work></rdf:RDF></metadata><defs
   id="defs59" /><sodipodi:namedview
   inkscape:document-rotation="0"
   pagecolor="#ffffff"
   bordercolor="#666666"
   borderopacity="1"
   objecttolerance="10"
   gridtolerance="10"
   guidetolerance="10"
   inkscape:pageopacity="0"
   inkscape:pageshadow="2"
   inkscape:window-width="1842"
   inkscape:window-height="1051"
   id="namedview57"
   showgrid="false"
   inkscape:pagecheckerboard="true"
   inkscape:zoom="19.511728"
   inkscape:cx="22.713745"
   inkscape:cy="13.048461"
   inkscape:window-x="69"
   inkscape:window-y="-9"
   inkscape:window-maximized="1"
   inkscape:current-layer="Capa_1" />
<g
   style="fill:#ffffff"
   id="g6"
   transform="matrix(0.0625,0,0,0.0625,0,0.25)">
	<g
   style="fill:#ffffff"
   id="g4">
		<path
   style="fill:#ffffff"
   d="M 507.49,101.721 352.211,256 507.49,410.279 C 510.297,404.412 512,397.926 512,391 V 121 c 0,-6.927 -1.703,-13.412 -4.51,-19.279 z"
   id="path2" />
	</g>
</g>
<g
   style="fill:#ffffff"
   id="g12"
   transform="matrix(0.0625,0,0,0.0625,0,0.25)">
	<g
   style="fill:#ffffff"
   id="g10">
		<path
   style="fill:#ffffff"
   d="M 467,76 H 45 c -6.927,0 -13.412,1.703 -19.279,4.51 l 198.463,197.463 c 17.548,17.548 46.084,17.548 63.632,0 L 486.279,80.51 C 480.412,77.703 473.927,76 467,76 Z"
   id="path8" />
	</g>
</g>
<g
   style="fill:#ffffff"
   id="g18"
   transform="matrix(0.0625,0,0,0.0625,0,0.25)">
	<g
   style="fill:#ffffff"
   id="g16">
		<path
   style="fill:#ffffff"
   d="M 4.51,101.721 C 1.703,107.588 0,114.073 0,121 v 270 c 0,6.927 1.703,13.413 4.51,19.279 L 159.789,256 Z"
   id="path14" />
	</g>
</g>
<g
   style="fill:#ffffff"
   id="g24"
   transform="matrix(0.0625,0,0,0.0625,0,0.25)">
	<g
   style="fill:#ffffff"
   id="g22">
		<path
   style="fill:#ffffff"
   d="m 331,277.211 -21.973,21.973 c -29.239,29.239 -76.816,29.239 -106.055,0 L 181,277.211 25.721,431.49 C 31.588,434.297 38.073,436 45,436 h 422 c 6.927,0 13.412,-1.703 19.279,-4.51 z"
   id="path20" />
	</g>
</g>
<g
   id="g26">
</g>
<g
   id="g28">
</g>
<g
   id="g30">
</g>
<g
   id="g32">
</g>
<g
   id="g34">
</g>
<g
   id="g36">
</g>
<g
   id="g38">
</g>
<g
   id="g40">
</g>
<g
   id="g42">
</g>
<g
   id="g44">
</g>
<g
   id="g46">
</g>
<g
   id="g48">
</g>
<g
   id="g50">
</g>
<g
   id="g52">
</g>
<g
   id="g54">
</g>
</svg>
