<?xml version="1.0" encoding="UTF-8" standalone="no"?>
<svg
   xmlns:dc="http://purl.org/dc/elements/1.1/"
   xmlns:cc="http://creativecommons.org/ns#"
   xmlns:rdf="http://www.w3.org/1999/02/22-rdf-syntax-ns#"
   xmlns:svg="http://www.w3.org/2000/svg"
   xmlns="http://www.w3.org/2000/svg"
   xmlns:sodipodi="http://sodipodi.sourceforge.net/DTD/sodipodi-0.dtd"
   xmlns:inkscape="http://www.inkscape.org/namespaces/inkscape"
   width="160"
   height="160"
   viewBox="0 0 160 160"
   version="1.1"
   id="svg3"
   sodipodi:docname="announcementcenter-new-dark.svg"
   inkscape:version="0.92.4 (5da689c313, 2019-01-14)">
  <metadata
     id="metadata9">
    <rdf:RDF>
      <cc:Work
         rdf:about="">
        <dc:format>image/svg+xml</dc:format>
        <dc:type
           rdf:resource="http://purl.org/dc/dcmitype/StillImage" />
        <dc:title></dc:title>
      </cc:Work>
    </rdf:RDF>
  </metadata>
  <defs
     id="defs7" />
  <sodipodi:namedview
     pagecolor="#ffffff"
     bordercolor="#666666"
     borderopacity="1"
     objecttolerance="10"
     gridtolerance="10"
     guidetolerance="10"
     inkscape:pageopacity="0"
     inkscape:pageshadow="2"
     inkscape:window-width="1827"
     inkscape:window-height="1051"
     id="namedview5"
     showgrid="false"
     inkscape:pagecheckerboard="true"
     showguides="true"
     inkscape:guide-bbox="true"
     inkscape:zoom="0.70710678"
     inkscape:cx="211.02032"
     inkscape:cy="112.58254"
     inkscape:window-x="84"
     inkscape:window-y="-9"
     inkscape:window-maximized="1"
     inkscape:current-layer="svg3" />
  <path
     clip-path="none"
     d="M 93.990234 53.914062 C 71.751803 62.843263 49.147314 62.621597 13.71875 65.34375 L 13.71875 70.96875 L 5 73.875 L 5 86.125 L 13.71875 89.03125 L 13.71875 95.71875 C 20.96934 96.54099 27.60263 97.04707 33.78125 97.4375 C 24.46263 113.39761 20.81393 127.3221 24.125 133.125 C 24.125 133.125 55.98964 147.47729 54.375 134.625 C 53.28876 125.97858 56.24519 111.05331 59.3125 98.75 C 88.32105 100.43898 107.83972 104.80197 141.75 139.875 C 145.00584 123.19475 146.69737 106.49275 147.09375 89.8125 L 153.59375 88.34375 C 156.75148 82.79181 156.13631 77.23946 153.59375 71.6875 L 146.96875 70.1875 C 146.8883 67.887612 146.61506 65.588653 146.49023 63.289062 A 35.298244 35.298244 0 0 1 146.22461 63.521484 A 35.298244 35.298244 0 0 1 143.35352 65.574219 A 35.298244 35.298244 0 0 1 140.29297 67.330078 A 35.298244 35.298244 0 0 1 137.07227 68.771484 A 35.298244 35.298244 0 0 1 133.72461 69.882812 A 35.298244 35.298244 0 0 1 130.28125 70.65625 A 35.298244 35.298244 0 0 1 126.7793 71.082031 A 35.298244 35.298244 0 0 1 124.2832 71.169922 A 35.298244 35.298244 0 0 1 120.75781 70.994141 A 35.298244 35.298244 0 0 1 117.26953 70.466797 A 35.298244 35.298244 0 0 1 113.85156 69.59375 A 35.298244 35.298244 0 0 1 110.53711 68.382812 A 35.298244 35.298244 0 0 1 107.35938 66.847656 A 35.298244 35.298244 0 0 1 104.35156 65.003906 A 35.298244 35.298244 0 0 1 101.54297 62.869141 A 35.298244 35.298244 0 0 1 98.960938 60.462891 A 35.298244 35.298244 0 0 1 96.632812 57.8125 A 35.298244 35.298244 0 0 1 94.580078 54.943359 A 35.298244 35.298244 0 0 1 93.990234 53.914062 z "
     id="path870"
     style="fill:#000000" />
  <circle
     style="opacity:1;vector-effect:none;fill:#ff4402;fill-opacity:1;stroke:none;stroke-width:11.6736002;stroke-linecap:butt;stroke-linejoin:round;stroke-miterlimit:4;stroke-dasharray:70.04160297, 11.67360048;stroke-dashoffset:0;stroke-opacity:1;paint-order:markers fill stroke"
     id="path819"
     cx="124.28249"
     cy="35.871319"
     r="25.762711" />
  <text
     xml:space="preserve"
     style="font-style:normal;font-weight:normal;font-size:25.40855026px;line-height:1.25;font-family:sans-serif;letter-spacing:0px;word-spacing:0px;fill:#000000;fill-opacity:1;stroke:none;stroke-width:0.63521373"
     x="26.089449"
     y="46.181389"
     id="text829"><tspan
       sodipodi:role="line"
       id="tspan827"
       x="26.089449"
       y="68.662003"
       style="font-style:normal;font-variant:normal;font-weight:bold;font-stretch:normal;font-size:25.40855026px;font-family:sans-serif;-inkscape-font-specification:'sans-serif, Bold';font-variant-ligatures:normal;font-variant-caps:normal;font-variant-numeric:normal;font-feature-settings:normal;text-align:start;writing-mode:lr-tb;text-anchor:start;stroke-width:0.63521373" /></text>
</svg>
