<?xml version="1.0" encoding="UTF-8" standalone="no"?>
<svg
   xmlns:dc="http://purl.org/dc/elements/1.1/"
   xmlns:cc="http://creativecommons.org/ns#"
   xmlns:rdf="http://www.w3.org/1999/02/22-rdf-syntax-ns#"
   xmlns:svg="http://www.w3.org/2000/svg"
   xmlns="http://www.w3.org/2000/svg"
   xmlns:xlink="http://www.w3.org/1999/xlink"
   xmlns:sodipodi="http://sodipodi.sourceforge.net/DTD/sodipodi-0.dtd"
   xmlns:inkscape="http://www.inkscape.org/namespaces/inkscape"
   inkscape:version="1.0 (4035a4fb49, 2020-05-01)"
   sodipodi:docname="versionRed.svg"
   id="svg40"
   xml:space="preserve"
   enable-background="new 0 0 1000 1000"
   viewBox="0 0 32 32"
   y="0px"
   x="0px"
   version="1.1"
   width="32"
   height="32"><defs
   id="defs44"><linearGradient
     id="linearGradient878"
     inkscape:collect="always"><stop
       id="stop874"
       offset="0"
       style="stop-color:#0099ff;stop-opacity:1" /><stop
       id="stop876"
       offset="1"
       style="stop-color:#0099ff;stop-opacity:0" /></linearGradient><linearGradient
     inkscape:collect="always"
     id="linearGradient863"><stop
       style="stop-color:#ff2a2a;stop-opacity:1;"
       offset="0"
       id="stop859" /><stop
       style="stop-color:#ff2a2a;stop-opacity:0;"
       offset="1"
       id="stop861" /></linearGradient><linearGradient
     inkscape:collect="always"
     xlink:href="#linearGradient863"
     id="linearGradient865"
     x1="0.89194298"
     y1="16.18956"
     x2="27.965166"
     y2="16.18956"
     gradientUnits="userSpaceOnUse" /><linearGradient
     gradientTransform="matrix(1.1819796,0,0,1.1819796,-1.0511792,-2.6279304)"
     inkscape:collect="always"
     xlink:href="#linearGradient878"
     id="linearGradient872"
     gradientUnits="userSpaceOnUse"
     x1="15.337959"
     y1="15.757738"
     x2="27.760984"
     y2="17.544115" /></defs><sodipodi:namedview
   inkscape:snap-text-baseline="false"
   inkscape:guide-bbox="true"
   showguides="true"
   inkscape:current-layer="g1244"
   inkscape:window-maximized="1"
   inkscape:window-y="-9"
   inkscape:window-x="2541"
   inkscape:cy="21.899757"
   inkscape:cx="23.538188"
   inkscape:zoom="22.627417"
   showgrid="false"
   id="namedview42"
   inkscape:window-height="1321"
   inkscape:window-width="2400"
   inkscape:pageshadow="2"
   inkscape:pageopacity="0"
   guidetolerance="10"
   gridtolerance="10"
   objecttolerance="10"
   borderopacity="1"
   bordercolor="#666666"
   pagecolor="#858585"
   inkscape:document-rotation="0"
   inkscape:pagecheckerboard="false" />
<metadata
   id="metadata2"> Svg Vector Icons : http://www.onlinewebfonts.com/icon <rdf:RDF><cc:Work
     rdf:about=""><dc:format>image/svg+xml</dc:format><dc:type
       rdf:resource="http://purl.org/dc/dcmitype/StillImage" /><dc:title /></cc:Work></rdf:RDF></metadata>
<g
   id="g8"
   transform="rotate(-45,500,500)" /><g
   id="g10"
   transform="rotate(-45,500,500)" /><g
   id="g12"
   transform="rotate(-45,500,500)" /><g
   id="g14"
   transform="rotate(-45,500,500)" /><g
   id="g16"
   transform="rotate(-45,500,500)" /><g
   id="g18"
   transform="rotate(-45,500,500)" /><g
   id="g20"
   transform="rotate(-45,500,500)" /><g
   id="g22"
   transform="rotate(-45,500,500)" /><g
   id="g24"
   transform="rotate(-45,500,500)" /><g
   id="g26"
   transform="rotate(-45,500,500)" /><g
   id="g28"
   transform="rotate(-45,500,500)" /><g
   id="g30"
   transform="rotate(-45,500,500)" /><g
   id="g32"
   transform="rotate(-45,500,500)" /><g
   id="g34"
   transform="rotate(-45,500,500)" /><g
   id="g36"
   transform="rotate(-45,500,500)" />
<g
   style="display:inline;opacity:0.715686"
   inkscape:label="Layer 2"
   id="layer2"
   inkscape:groupmode="layer"><g
     transform="translate(-0.00307866,-0.50780008)"
     id="g1244"><circle
       r="16"
       style="opacity:1;fill:url(#linearGradient872);fill-opacity:1;stroke-width:1.3321;stroke-linecap:round;stroke-linejoin:round;paint-order:fill markers stroke;stop-color:#000000"
       id="path849"
       cx="16.003078"
       cy="16.507799" /><g
       style="display:inline;opacity:1"
       id="g929"
       transform="matrix(0.79538686,0,0,0.79538686,3.3907619,2.0731801)"><path
         id="path927"
         style="display:inline;opacity:1;fill:#ffffff;fill-opacity:1;stroke:none;stroke-width:1.00168;stroke-linecap:round;stroke-linejoin:round;stroke-miterlimit:4;stroke-dasharray:none;stroke-opacity:1;paint-order:fill markers stroke;stop-color:#000000"
         d="m 16.259766,11.474609 c -0.785874,0 -1.417969,0.632095 -1.417969,1.417969 v 5.648438 l -2.953125,3.048828 c -0.54662,0.564628 -0.531425,1.459239 0.0332,2.005859 0.564628,0.54662 1.459239,0.533378 2.005859,-0.03125 l 3.308594,-3.419922 c 0.271088,-0.25806 0.44336,-0.619832 0.44336,-1.02539 v -6.226563 c -10e-7,-0.785874 -0.634048,-1.417969 -1.419922,-1.417969 z"
         transform="matrix(1.2894753,0,0,1.2894753,-4.585368,-5.9763388)" /></g><path
       id="rect1018-2-3"
       style="display:inline;opacity:1;fill:#ffffff;stroke-width:0.694983;stroke-linecap:round;stroke-linejoin:round;paint-order:fill markers stroke;stop-color:#000000"
       d="m 16.088136,32.512252 c -3.081944,0.01916 -6.2020471,-0.849494 -8.9589841,-2.6875 -7.35182902,-4.901336 -9.338707,-14.837532 -4.4375,-22.189453 4.901218,-7.3519161 14.8376211,-9.3407893 22.1894531,-4.439453 3.673583,2.449116 6.005995,6.15526 6.810547,10.167969 7.67e-4,0.0038 0.0031,0.0078 0.0039,0.01172 3.89e-4,0.002 -4.25e-4,0.0039 0,0.0059 0.204784,1.050957 -0.474204,2.065155 -1.52539,2.27539 -1.045284,0.209054 -2.054452,-0.457305 -2.277344,-1.496093 -0.0037,0.0013 -0.0062,0.0025 -0.0098,0.0039 C 27.280779,11.114918 25.512312,8.29508 22.720949,6.434127 17.155749,2.723889 9.6400229,4.22829 5.9299329,9.793502 c -3.710089,5.565208 -2.207725,13.082776 3.357422,16.792969 2.7825701,1.855091 6.0533071,2.406518 9.0917971,1.798828 2.532966,-0.506588 4.894088,-1.833849 6.6875,-3.869141 l -2.337891,0.339844 c -1.063983,0.154755 -2.044463,-0.574691 -2.199218,-1.638672 -0.154757,-1.06398 0.576643,-2.046416 1.640625,-2.201172 l 7.517578,-1.09375 c 0.53199,-0.07737 1.043776,0.06468 1.441406,0.361329 0.397628,0.296647 0.682389,0.747306 0.759766,1.279296 0.02415,0.166047 0.01887,0.329098 0.002,0.488282 l 0.02734,7.406249 c 0.004,1.07517 -0.860379,1.943273 -1.935546,1.947266 -1.075169,0.004 -1.94132,-0.856471 -1.945313,-1.931641 l -0.0098,-2.427734 c -2.375164,2.715807 -5.517383,4.480828 -8.884766,5.154297 -1.003824,0.200762 -2.027373,0.306114 -3.054688,0.3125 z m 1.933594,-4.50586 a 11.500713,10.613017 78.690202 0 0 0.04492,-0.0098 11.500713,10.613017 78.690202 0 1 -0.04492,0.0098 z m -0.138672,-0.787109 a 10.712936,9.8860446 78.690202 0 0 0.04492,-0.0098 10.712936,9.8860446 78.690202 0 1 -0.04492,0.0098 z m 10.052735,-3.121094 h 0.08008 v -0.01172 z" /></g></g></svg>
