<?xml version="1.0" encoding="UTF-8" standalone="no"?>
<svg
   xmlns:dc="http://purl.org/dc/elements/1.1/"
   xmlns:cc="http://creativecommons.org/ns#"
   xmlns:rdf="http://www.w3.org/1999/02/22-rdf-syntax-ns#"
   xmlns:svg="http://www.w3.org/2000/svg"
   xmlns="http://www.w3.org/2000/svg"
   xmlns:sodipodi="http://sodipodi.sourceforge.net/DTD/sodipodi-0.dtd"
   xmlns:inkscape="http://www.inkscape.org/namespaces/inkscape"
   height="32"
   width="32"
   version="1.1"
   x="0px"
   y="0px"
   viewBox="0 0 32 32"
   enable-background="new 0 0 1000 1000"
   xml:space="preserve"
   id="svg40"
   sodipodi:docname="version.svg"
   inkscape:version="1.0 (4035a4fb49, 2020-05-01)"><defs
   id="defs44" /><sodipodi:namedview
   inkscape:pagecheckerboard="false"
   inkscape:document-rotation="0"
   pagecolor="#858585"
   bordercolor="#666666"
   borderopacity="1"
   objecttolerance="10"
   gridtolerance="10"
   guidetolerance="10"
   inkscape:pageopacity="0"
   inkscape:pageshadow="2"
   inkscape:window-width="2400"
   inkscape:window-height="1321"
   id="namedview42"
   showgrid="false"
   inkscape:zoom="16"
   inkscape:cx="22.018671"
   inkscape:cy="6.2706657"
   inkscape:window-x="2541"
   inkscape:window-y="-9"
   inkscape:window-maximized="1"
   inkscape:current-layer="layer3"
   showguides="true"
   inkscape:guide-bbox="true"
   inkscape:snap-text-baseline="false" />
<metadata
   id="metadata2"> Svg Vector Icons : http://www.onlinewebfonts.com/icon <rdf:RDF><cc:Work
     rdf:about=""><dc:format>image/svg+xml</dc:format><dc:type
       rdf:resource="http://purl.org/dc/dcmitype/StillImage" /><dc:title /></cc:Work></rdf:RDF></metadata>
<g
   transform="rotate(-45,500,500)"
   id="g8" /><g
   transform="rotate(-45,500,500)"
   id="g10" /><g
   transform="rotate(-45,500,500)"
   id="g12" /><g
   transform="rotate(-45,500,500)"
   id="g14" /><g
   transform="rotate(-45,500,500)"
   id="g16" /><g
   transform="rotate(-45,500,500)"
   id="g18" /><g
   transform="rotate(-45,500,500)"
   id="g20" /><g
   transform="rotate(-45,500,500)"
   id="g22" /><g
   transform="rotate(-45,500,500)"
   id="g24" /><g
   transform="rotate(-45,500,500)"
   id="g26" /><g
   transform="rotate(-45,500,500)"
   id="g28" /><g
   transform="rotate(-45,500,500)"
   id="g30" /><g
   transform="rotate(-45,500,500)"
   id="g32" /><g
   transform="rotate(-45,500,500)"
   id="g34" /><g
   transform="rotate(-45,500,500)"
   id="g36" />
<g
   style="display:inline;opacity:1"
   inkscape:label="Layer 3"
   id="layer3"
   inkscape:groupmode="layer"><g
     transform="matrix(0.79538686,0,0,0.79538686,3.3866102,1.5631168)"
     id="g929"><path
       transform="matrix(1.2894753,0,0,1.2894753,-4.585368,-5.9763388)"
       d="m 16.259766,11.474609 c -0.785874,0 -1.417969,0.632095 -1.417969,1.417969 v 5.648438 l -2.953125,3.048828 c -0.54662,0.564628 -0.531425,1.459239 0.0332,2.005859 0.564628,0.54662 1.459239,0.533378 2.005859,-0.03125 l 3.308594,-3.419922 c 0.271088,-0.25806 0.44336,-0.619832 0.44336,-1.02539 v -6.226563 c -10e-7,-0.785874 -0.634048,-1.417969 -1.419922,-1.417969 z"
       style="display:inline;opacity:1;fill:#ffffff;fill-opacity:1;stroke:none;stroke-width:1.00168;stroke-linecap:round;stroke-linejoin:round;stroke-miterlimit:4;stroke-dasharray:none;stroke-opacity:1;paint-order:fill markers stroke;stop-color:#000000"
       id="path927" /></g><path
     d="M 16.083984,32.002189 C 13.00204,32.021346 9.8819369,31.152695 7.125,29.314689 -0.22682906,24.413353 -2.2137075,14.477157 2.6875,7.1252357 c 4.901218,-7.35191601 14.837621,-9.340789 22.189453,-4.439453 3.673583,2.449116 6.005995,6.15526 6.810547,10.1679693 7.67e-4,0.0038 0.0031,0.0078 0.0039,0.01172 3.89e-4,0.002 -4.25e-4,0.0039 0,0.0059 0.204784,1.050957 -0.474204,2.065155 -1.52539,2.27539 -1.045284,0.209054 -2.054452,-0.457305 -2.277344,-1.496093 -0.0037,0.0013 -0.0062,0.0025 -0.0098,0.0039 C 27.276627,10.604855 25.50816,7.7850167 22.716797,5.9240637 17.151597,2.2138257 9.635871,3.7182267 5.9257812,9.2834387 2.2156917,14.848647 3.7180562,22.366215 9.2832031,26.076408 12.065773,27.931499 15.33651,28.482926 18.375,27.875236 c 2.532966,-0.506588 4.894088,-1.833849 6.6875,-3.869141 l -2.337891,0.339844 c -1.063983,0.154755 -2.044463,-0.574691 -2.199218,-1.638672 -0.154757,-1.06398 0.576643,-2.046416 1.640625,-2.201172 l 7.517578,-1.09375 c 0.53199,-0.07737 1.043776,0.06468 1.441406,0.361329 0.397628,0.296647 0.682389,0.747306 0.759766,1.279296 0.02415,0.166047 0.01887,0.329098 0.002,0.488282 l 0.02734,7.406249 c 0.004,1.07517 -0.860379,1.943273 -1.935546,1.947266 -1.075169,0.004 -1.94132,-0.856471 -1.945313,-1.931641 l -0.0098,-2.427734 c -2.375164,2.715807 -5.517383,4.480828 -8.884766,5.154297 -1.003824,0.200762 -2.027373,0.306114 -3.054688,0.3125 z m 1.933594,-4.50586 a 11.500713,10.613017 78.690202 0 0 0.04492,-0.0098 11.500713,10.613017 78.690202 0 1 -0.04492,0.0098 z M 17.878906,26.70922 a 10.712936,9.8860446 78.690202 0 0 0.04492,-0.0098 10.712936,9.8860446 78.690202 0 1 -0.04492,0.0098 z m 10.052735,-3.121094 h 0.08008 v -0.01172 z"
     style="display:inline;fill:#ffffff;stroke-width:0.694983;stroke-linecap:round;stroke-linejoin:round;paint-order:fill markers stroke;stop-color:#000000"
     id="rect1018-2-3" /></g></svg>
